<svg version="1" xmlns="http://www.w3.org/2000/svg" width="933.333" height="933.333" viewBox="0 0 700.000000 700.000000"><path d="M182.2 133.7l.3 133.8h45.6l62.4-133C324.8 61.3 352.9 1.2 353 .7c0-.4-38.5-.7-85.5-.7H182l.2 133.7zM470.5 159.1C426 246.6 386 325.2 381.6 333.8l-7.8 15.7 43.5 80.5c23.9 44.3 66.5 123 94.5 175l51 94.5 68.6.3 68.6.2v-49.7l-96.9-119.9-96.9-119.9 7.6-3.1c42.9-17.3 80.8-46.3 108-82.4 52-69.2 65.8-156.4 37.5-238.5-9.7-28.3-29.3-62.2-47.6-82.4L608 0h-28.2l-28.3.1-81 159zM181 569.5V700h172.8l-17.3-35.3c-9.5-19.3-38.4-78-64.3-130.2l-46.9-95-22.1-.3-22.2-.2v130.5z"/></svg>