<svg version="1" xmlns="http://www.w3.org/2000/svg" width="346.667" height="346.667" viewBox="0 0 260.000000 260.000000"><path d="M0 130v130h260V0H0v130zm250 0v120H10V10h240v120z"/><path d="M16 130v114h228V16H16v114zm218.5 0v104.5h-209L25.2 131c-.1-56.9 0-104.1.3-104.8.3-1 21.8-1.2 104.7-1l104.3.3V130z"/><path d="M31 130v99h198V31H31v99zm58-57.6c0 2.1-.6 2.5-4.2 3.1-10.6 1.8-10.9 2.8-10.6 32l.3 23.6L94 107.6c10.7-13 19.9-24.7 20.4-26 1.2-3.2-.4-5.2-4.9-6-2.9-.6-3.5-1.1-3.5-3.1V70h36v2.4c0 1.9-.6 2.4-3.8 3-2.1.3-5.4 1.6-7.3 2.9-3 2-29.6 31.6-34.9 38.8l-2 2.7 22.5 27.3c12.4 15.1 24.2 28.7 26.2 30.2 4.5 3.4 7.8 3.2 10.7-.6 2-2.7 2.1-4 2.1-27-.1-27.4-.7-30.9-5.7-32.6-1.7-.6-4.2-1.1-5.5-1.1-2 0-2.4-.4-2.1-2.2.3-2 1.6-2.5 12.8-5 6.9-1.4 12.6-2.5 12.8-2.4.1.2.7 4.3 1.3 9.2.6 4.9 1.2 9 1.4 9.2.1.2 1.4-1.6 2.8-4 5.8-9.9 14.7-16 23.4-16.2 4.2 0 5.7.4 7.8 2.4 3.5 3.2 3.4 8.1-.1 10.9-3.4 2.7-6.3 2.6-12.5 0-4.3-1.9-5.3-2-7.9-.9-3.9 1.6-8.2 7.9-11.1 16.1-1.9 5.4-2.3 9-2.7 23.2-.3 11.6 0 17.7.8 19.7 1.2 2.8 5.2 5 9.1 5 1.4 0 1.9.7 1.9 2.5v2.5h-74v-2.4c0-2.4 2.1-3.6 6.6-3.6 2.9 0 4.8-2.5 4-5.4-.3-1.3-8.1-11.7-17.3-23.2l-16.7-20.7-5.3 5.9-5.3 5.9V157c0 19 .8 20.9 9.8 22.9 5.4 1.3 6.2 1.7 6.2 3.8v2.3H42v-2.5c0-2.2.5-2.5 5.2-3.1 8.2-1.1 10.4-3.9 11.3-14.5.4-4.6.5-25.1.3-45.4-.3-38.5-.5-40.1-4.7-43.2-.9-.6-3.5-1.4-5.8-1.8-3.7-.5-4.3-1-4.3-3.1V70h45v2.4zm125.5 99.1c3.4 3.3 3.4 9.3.1 13.2-4.4 5.1-13.2 3.1-15.7-3.6-1.2-3.1.6-8.6 3.4-10.6 3.4-2.4 9.4-1.9 12.2 1z"/></svg>